<svg version="1" xmlns="http://www.w3.org/2000/svg" width="844" height="844" viewBox="0 0 633.000000 633.000000"><path d="M80.5 106.2c-.2.7-.6 2.9-.8 4.8-.3 1.9-2.4 14.7-4.7 28.5-2.2 13.7-4.3 26.3-4.6 28-.2 1.6-.6 4.1-.9 5.5-.3 1.4-.7 3.9-1 5.5-.2 1.7-1.9 11.6-3.6 22-1.7 10.5-3.3 20.3-3.6 22-.2 1.6-1.3 8.2-2.3 14.5-1.1 6.3-2.2 13.3-2.5 15.5-.4 2.2-.8 4.7-1 5.5-.3.8-.7 3.7-1 6.5-.3 2.7-.8 5.7-1 6.5-.2.8-.7 3.5-1 6-.4 2.5-1.1 6.7-1.6 9.4s-.9 5.1-.9 5.5c0 .3 5.5.5 12.2.4 6.8-.1 14.2-.2 16.5-.2 3.7-.1 4.2-.4 4.7-2.9.3-1.5 2.4-13.3 4.6-26.2 2.2-12.9 4.3-24.6 4.6-26 .2-1.4.7-4.1 1-6 .2-1.9 1.4-8.2 2.4-14 1.1-5.8 2.2-11.9 2.4-13.5 1.5-9.2 3.8-22 4.1-22.3.2-.2 8.6 24.6 18.6 55 10.1 30.4 18.4 55.4 18.5 55.6.3.5 29.5.5 30 0 .2-.2 8.7-25.1 18.9-55.3 16.8-49.9 19.5-57.5 19.5-55.1 0 .7 2.3 14.5 5.6 34.1 5 29.2 24.9 55.4 51.9 68 12.1 5.7 22.1 7.8 38 7.9 15.4.1 20.2-.4 30.2-3.5 27.1-8.4 49.5-30.7 58.8-58.3 1.4-4 2.8-9.7 3.2-12.7 1-6.8 1-29 .1-34.9-3.1-18.9-12.5-36.6-26.9-50.7-18.8-18.4-39.8-26.5-66.4-25.8-15.6.4-27.1 3.5-41.5 11.1-6.5 3.4-19.3 12.7-18.6 13.5.2.2.6 2 .9 3.9.5 3.3 3.2 20.1 4 24.5.2 1.1 1 5.5 1.7 9.8l1.3 7.9 2.5-5.4c7.8-16.5 24.8-29.7 41.8-32.4 19.3-3 36.6 2.7 50.6 16.8 9.6 9.6 14.9 19.9 17 32.6 5 30.6-11 59.2-38.5 69-10.1 3.6-24.9 3.7-35.6.3-9.3-3.1-20.1-10.1-26.9-17.5-5.3-5.9-11.4-17.3-12.6-23.6-2.9-15.6-13-75.9-14.5-86.6-.6-3.8-1.3-9.4-1.6-12.4-.3-3-.8-6.4-1-7.5-.2-1.1-.4-2.6-.4-3.3-.1-1-3.9-1.2-17.3-1l-17.2.3-4.4 14c-2.4 7.7-7 22.3-10.2 32.5-3.2 10.2-8.1 25.7-10.8 34.5-2.8 8.8-7.6 24.1-10.7 34l-5.8 18-2.2-8c-1.3-4.4-4.6-15.4-7.5-24.5-2.8-9.1-6-19.2-7-22.5-1-3.3-6.8-22.1-12.9-41.8-6.1-19.7-11.1-36-11.1-36.3 0-.2-7.4-.4-16.5-.4-12.4 0-16.7.3-17 1.2z"/><path d="M420 106.6c-13.4 3.5-24.5 11.4-30.3 21.6-4.3 7.5-4.3 7.9 1.7 17.8 7 11.7 13.6 31.4 13.6 40.9 0 2.2.6 4.6 1.3 5.3 2.7 2.6 14.4 12.9 22.2 19.3 21.6 18 27 26 24.4 35.7-1.1 4.3-7.1 9.9-12.3 11.5-2 .6-14.1 1.1-28.8 1.2l-25.3.1-3.5 4.2c-8.3 10-16.7 17.1-27.7 23.4l-7.8 4.4 47.5-.1c46-.1 47.7-.1 55.2-2.3 21.6-6.3 35-22.2 36.5-43.3 1.1-14.1-3.9-28.3-13.9-39.9-2.9-3.4-13.8-13.4-24.2-22.4-27.3-23.7-31.6-28.4-31.6-34.6 0-3.7 3-7.8 7.3-10.1 2.9-1.5 9.9-1.7 74.2-1.7l71-.1.3-16.3.2-16.2-72.2.1c-59.5.1-73.3.3-77.8 1.5z"/><path d="M466.9 147.7c-1.1 18.6 9.3 33.9 41.6 61.3 8.2 7 16.7 14.5 18.8 16.6 12.8 12.9 12 25.8-2 32-4.8 2.1-6.8 2.4-18.9 2.4-11.9 0-13.5.2-14 1.7-3.5 10.5-13.7 22.8-22.9 27.6l-5 2.6 3.5.1c9.9.4 50.3.1 55.3-.4 22.3-2.3 40.4-17.4 45.1-37.6 3.2-13.5.3-29.2-7.4-40.8-5.3-7.9-10.8-13.4-30.9-30.7-17.7-15.3-26.6-23.9-28.8-27.8-.7-1.2-1.2-3.7-1.3-5.5V146h-16.5c-15 0-16.5.2-16.6 1.7zM151.9 323.5c-.1 1.1-.2 3.1-.3 4.5-.7 7-2.7 37.5-2.8 42-.1 2.8.5 3.1 5 2.8 4.2-.3 4.7-.6 4.9-2.8 0-1.4.4-9.7.8-18.5s.8-16.1.9-16.3c.2-.1 1.1 3.6 2 8.2 1 4.6 3 12.8 4.5 18.2l2.8 9.9h4.3c4.9 0 3.8 2.4 11.1-23.5 2.8-9.8 3.8-12.5 3.9-10 .4 8.2.8 20 .9 27.2l.1 7.8h11.2l-.6-7.8c-.9-12.3-1.6-25-2.1-33.9-.2-4.5-.6-8.6-.9-9.1-.8-1.4-12.7-.7-13.6.8-.4.7-2.2 6.9-4 13.9-5.5 21.3-5.3 20.8-5.7 18.6-1.3-6.4-7.6-31.2-8.3-32.4-.6-1.1-2.8-1.5-7.4-1.6-6-.1-6.6.1-6.7 2zM220.1 322.4c-.5.6-2 5.1-3.4 10.1-1.3 4.9-4.3 15.6-6.6 23.6-2.2 8.1-4.1 15.1-4.1 15.8 0 .7 2 1.1 5.4 1.1 5 0 5.4-.2 6-2.8.4-1.5 1.2-4.4 1.7-6.5l1-3.7 6.4.1 6.5.2 1.8 6.1 1.8 6.1 5.7.3c3.1.2 5.7.1 5.7-.1s-1.6-6.2-3.6-13.3c-1.9-7.1-3.7-13.6-3.9-14.4-3-11.8-5.9-21.7-6.7-22.5-1.2-1.3-12.6-1.4-13.7-.1zm7.4 12.3c.3 1.8.9 4.3 1.5 5.7.5 1.5.8 2.6.5 2.6-.2 0 .2 1.8 1 4 1.6 4.4 1.1 4.8-5.3 4.8-3 .1-3.3-.2-2.9-2.1.3-1.2 1.3-5.9 2.3-10.5.9-4.5 1.8-8.1 2-7.9.2.1.5 1.7.9 3.4zM254.9 326.4v44.3c.1 2.3.2 2.3 14.6 2.3H284v-9.6l-8.2.1c-4.6.1-8.7 0-9.3-.2-.6-.2-.9-7.8-.7-20.8.2-16.2 0-20.5-1-20.6-.7-.1-3.2-.2-5.5-.4l-4.3-.2-.1 5.1zM293.5 321.9l-3 .6v24.4c0 13.3.3 24.7.6 25.2.7 1.1 14.9 1.4 20.5.3 12.5-2.2 19.5-11.5 19.6-25.8.1-16.7-8.3-24.7-26.2-25.1-4.7-.1-9.8.1-11.5.4zm21.6 11.7c3.6 3.4 4.7 7 4.3 14.6-.3 9.4-5.1 15.3-13 16.3-3.7.4-4.2.3-4.6-1.8-.3-1.8-.2-25 .1-31.1.1-1.6.7-1.8 5.1-1.4 3.8.4 5.8 1.2 8.1 3.4zM339.4 322.2c-.4.6-.8 35.7-.5 47l.1 3.8h11l-.2-25.7-.3-25.6-4.8-.2c-2.7 0-5 .2-5.3.7zM356.4 321.7c-.7.2-.3 3.1 1.3 8.6 1.4 4.5 4.5 15.2 6.9 23.7 2.5 8.5 4.7 16.3 5 17.2.4 1.5 1.7 1.8 6.9 1.8h6.3l3.5-11.3c6-19 11.7-38.3 11.7-39.3 0-.9-10.8-1-11.5-.2-.5.6-8.5 34.6-8.5 36.1 0 2.5-1.6 2.8-1.8.4-.1-1.2-2.1-10-4.4-19.6l-4.3-17.4-5-.2c-2.8-.1-5.5 0-6.1.2zM404.7 322c-.9.4-1.2 6.8-1.2 25.5v25h29.9l.1-4.2c.1-4.9 0-5-10.7-4.7l-7.8.1v-12.6l8.2-.3 8.3-.3V342h-8.1c-8.2 0-8.2 0-8.5-2.8-.2-1.5-.3-3.9-.1-5.5l.3-2.7h8.5c6 0 8.4-.4 8.5-1.3.4-4.9.4-7.7-.1-7.8-2.4-.4-26.3-.3-27.3.1zM450.9 322c-9.6 2.9-14.1 13.2-9.1 21 2 3.2 3.6 4.5 9.7 7.6 2.8 1.5 5.8 3.3 6.8 4.2 2.1 1.9 2.2 5.5.1 7.6-2 2-9.3 2.1-13.8.2l-3.4-1.4-1.1 4.3c-.6 2.4-1.1 4.6-1.1 4.9 0 1.1 7.8 2.8 13.4 2.9 6.3 0 12.7-2.4 15.5-5.7 2.5-3 3.9-8.7 3-12.4-1.2-5.4-3.9-8.3-12-12.8-5.9-3.3-7.5-4.6-7.7-6.7-.6-4.9 5.6-6.7 14-4.1 2 .6 2.4 0 3.3-4.8.7-3.6.6-3.7-3.2-4.7-4.3-1.2-10.6-1.3-14.4-.1zM105 389.4c-8.5 2.5-15.1 13.6-15.1 25.1 0 18.9 13.1 30.3 29 25 9.1-3 14.3-11.3 14.7-23.5.5-12.3-3.8-21.4-12.1-25.8-3.6-1.9-11.7-2.3-16.5-.8zm12.5 10.6c3.3 3.1 4.8 8.9 4.3 16.1-.7 11.4-5.7 17.4-12.5 15.2-9.1-3-10.5-25.7-2-32.5 2.6-2 7.3-1.5 10.2 1.2zM148 388.7c-1.4.2-3.5.6-4.7.8l-2.3.5v49.8l5.5.4c3.2.2 5.5-.1 5.6-.7.1-.6.1-4.7.1-9.3 0-5.6.3-8.2 1.1-8.3 9-.6 12.3-1.5 15.9-4 3.9-2.8 6-7.4 6.1-13 .1-7.4-3.3-12.6-9.8-14.9-3.1-1-13.2-1.8-17.5-1.3zm12.3 9.4c2.8 1.2 4.3 4.6 3.8 8.4-.4 3.1-4.8 6.5-8.5 6.5h-3.3v-7.3c0-3.9.1-7.4.2-7.7.6-1.1 5-1 7.8.1zM294.5 388.7c-7.5 1.5-12.7 7.5-12.7 14.8 0 6 3.4 10.3 11.8 14.6 3.6 1.9 7 4.2 7.6 5.2 1.5 2.9.1 6.4-3 7.5-2.7.9-9.8.3-13.4-1.2-1.3-.6-1.9 0-2.7 3.1-1.5 5.2-1.5 5.2 1.6 6.4 4.6 1.7 14.1 1.9 18.6.3 9.6-3.4 13.6-12.8 9.2-21.5-1.2-2.3-8.1-7.9-9.8-7.9-.4 0-2.5-1.1-4.7-2.5-4.4-2.7-5.3-6.2-2.4-8.6 1.9-1.5 9.4-1.5 12.3 0 1.8 1 2.1.7 3-2.6 1.5-5.4 1.4-6-1.6-6.8-3.4-.9-11-1.3-13.8-.8zM334.8 389c-12.2 3.5-18.9 18.5-15.4 34.7 1.4 6.7 6.6 13.1 12.5 15.6 7.8 3.1 18.8.7 24.3-5.5 5.1-5.7 7.4-17.7 5.4-28.1-1.2-6.5-7.2-13.9-13.1-16.1-2.9-1.2-10.6-1.5-13.7-.6zm11.1 10.4c6.6 6 5.9 26.1-1 31-2.3 1.6-7.3 1.3-9.6-.5-3.5-2.9-5.1-8.3-4.9-15.9.3-8 2-12.8 5.7-15.3 2.7-1.9 7.3-1.6 9.8.7zM423 388.8c-2.4.2-4.7.8-5 1.3-.4.5-.6 11.8-.5 25.1v24.3l3.6.6c7 1.1 7.5.3 7.4-10.5-.1-9.5-.1-9.6 2.3-9.6 5.3 0 6 1 9.7 14.2l1.6 5.8h5.4c3 0 5.5-.3 5.5-.8 0-3.3-5.3-18.9-7.1-20.8l-2.2-2.3 3.1-2.6c5.3-4.4 6.3-12.9 2.3-18.5-3.6-5.2-12.1-7.2-26.1-6.2zm14.1 9.3c4.2 2.2 4.3 10.7.1 12.4-2.9 1.2-8.2 1.7-8.3.8-.4-2.9-.5-12-.1-13.1.5-1.5 5.6-1.6 8.3-.1zM475.4 389.5c-12.2 3.6-17.7 12-17.7 26.8 0 9.8 3.8 16.8 11.3 21.1 5 2.8 6.3 3.1 13.6 3 10.4-.1 11.3-.7 10.1-6.2-.7-3.6-1.1-4.2-2.8-3.7-3.7 1.2-10.1.7-13.4-1-5.1-2.8-7-6.8-7-15 0-7.9 1.9-12.1 6.7-15 3-1.7 9.7-2.3 13.4-1.1 1.8.5 2.3 0 3.3-3.5 1.4-4.5.7-5.7-3.4-6-1.1-.1-3.8-.3-6-.4-2.2-.1-5.8.3-8.1 1zM182.9 390.2c-.5 7.5-.2 49.1.4 49.5.7.4 4.6.5 23.5.3h5.8l-.2-3.8c-.1-2-.2-4-.3-4.5-.1-.4-4.1-.7-9.1-.7-9.6 0-9.2.2-9.2-5.5 0-8.1-.7-7.5 8.5-7.5h8.3l-.1-4.3-.1-4.2-8.1-.3c-8-.3-8.1-.3-8.4-3-.2-1.5-.3-3.9-.1-5.5l.3-2.7h17.4l-.1-4.2v-4.3l-14.2-.3c-11-.2-14.2 0-14.3 1zM220 414.5V440h10.2l-.4-18c-.2-9.9-.2-18-.1-18 .2 0 1.6 2.9 3.2 6.4 1.6 3.6 5.5 11.6 8.8 18l5.8 11.6H259v-51h-10l-.1 5.2c-.1 10.6.2 23.4.7 26.8.3 2.3-2.6-2.8-8.3-14.3l-8.7-17.7H220v25.5zM369.9 389.4c-.9 1 0 34.5 1.1 38.5 2.4 9.1 10.3 14 20.4 12.6 5.6-.7 8.3-1.9 10.9-4.9 4.7-5.3 5.1-7.3 5.5-27.4l.4-19.2H397v10.7c-.1 20.5-.5 25.9-2.3 28.7-1 1.4-2.1 2.6-2.5 2.7-.4 0-1.7.2-3 .5-3.4.6-8.2-4.5-8.3-8.8V389h-5.3c-2.9 0-5.5.2-5.7.4zM500.5 413.9c0 13.7.2 25.2.5 25.5.6.5 14.6.9 24.5.7l5-.1-.2-3.7c-.1-2.1-.2-4.1-.2-4.5-.1-.4-4.3-.9-9.3-1l-9.3-.3v-12l8-.1c8-.2 8-.2 8.5-3 1.2-5.8.5-6.3-8.4-6.6l-8.1-.3v-10l8.8-.3 8.7-.3V389h-28.5v24.9zM193.2 456.2c-9.5 1.6-14.7 7.5-13.9 15.7.6 5.9 3 8.6 11.6 13.6 7.8 4.4 9.5 6.6 7.8 10.2-1.6 3.5-9 4-16.4 1.2-1.4-.5-2.3-.5-2.3.1 0 1.4 0 1.7-1 5-1.1 3.9.8 5 10.1 5.7 12.9 1 21.1-4.6 21.2-14.5.1-8.2-2.5-11.2-16.7-18.7-3.5-1.8-4.1-4-2.2-7 1.7-2.5 2.2-2.7 6.9-2.3 2.9.3 5.8.7 6.6.9 1.9.5 4.6-8 2.8-8.6-3.6-1.4-10.7-2-14.5-1.3zM234.3 456.1c-11.5 2.1-18.4 11.5-18.4 25.4-.1 12.5 3.9 20.3 12.5 24.7 5.4 2.8 15.6 2.1 20.8-1.2 7.2-4.8 11-14.2 10.3-26-.8-15.6-11.5-25.3-25.2-22.9zm11.7 14.5c1 1.9 1.5 5.7 1.5 11.4-.1 11.9-3.1 17-9.9 17-8.3 0-12.8-15.3-8.1-27.6 1.4-3.7 3.3-5.4 7.5-6.7 2.3-.7 7.3 2.6 9 5.9zM286.2 456.2c-6.6 1-10.1 2.8-14.7 7.5-8.6 8.9-8.8 28.3-.2 37.1 5.2 5.4 10 7.1 19.4 6.9 4.5-.1 8.6-.7 9.1-1.2.5-.6.7-2.6.5-4.6l-.5-3.7-6.6.2c-11.4.1-16.5-5-16.5-16.5-.1-11.5 6-17.4 16.9-16.6l6.2.5.6-4.1c.4-2.2.5-4.1.3-4.3-1.1-1.2-9.9-1.9-14.5-1.2zM308.4 457.1c-.7 1.3-.8 48.4 0 49.7.3.5 2.7.8 5.3.7l4.8-.1.3-25.6.2-25.5-4.9-.1c-2.8-.1-5.3.3-5.7.9zM328.9 458.4c-.3 5.5-.4 47.2-.2 48.1.3.8 26 1.3 29.4.6.3 0 .5-1.9.5-4.1 0-4.7-.4-4.9-10.2-4.8-3.9.1-7.5-.2-8.1-.5-1-.6-.8-10.5.2-11.6.4-.3 4.1-.6 8.3-.6h7.7v-4.2c.1-2.3-.4-4.4-1-4.6-.5-.2-4.3-.3-8.2-.2-4 0-7.3-.3-7.4-.7 0-.4-.1-2.2-.1-3.8 0-7-.5-6.6 7.6-6.5 4.1 0 8.1-.2 8.8-.5.8-.3 1.3-2.1 1.3-4.6v-4.1h-14.2c-13.9-.1-14.3 0-14.4 2.1zM362.5 456.8c-1.1 1.2-.5 9.3.8 9.1.6-.1 3.5-.1 6.3 0l5 .1-.1 19.2c0 10.6.1 20 .3 20.8.2 1.2 1.6 1.6 5.5 1.5h5.2l.2-19.5c0-10.7.2-20.1.2-20.8.1-.8 2-1.2 6-1.2 6.5 0 7-.5 6.3-6.6l-.4-3.2h-17.4c-9.5.1-17.6.3-17.9.6zM401 456.5c0 .3 3.2 7.1 7.1 15.3l7 14.7.2 10.5.2 10.4 4.5.1c2.5.1 5 0 5.5-.2.7-.2 1.1-4.3 1-10.6l-.1-10.2 7.3-14.4c4-7.9 7.3-14.7 7.3-15.2 0-.4-2.6-.8-5.8-.8h-5.8l-3.1 8.7c-1.8 4.8-3.5 9.7-3.8 11-.4 1.3-1 2.1-1.3 1.7-.4-.3-2.3-5.2-4.3-10.8l-3.6-10.2-6.1-.2c-3.4-.1-6.2 0-6.2.2z"/></svg>